<?xml version="1.0" encoding="UTF-8" standalone="no"?>
<svg
   id="Layer_1"
   version="1.1"
   viewBox="0 0 485.5 115.5"
   xmlns="http://www.w3.org/2000/svg"
   xmlns:svg="http://www.w3.org/2000/svg">
  <defs
     id="defs1">
    <style
       id="style1">
      .svg_aai-st0 {
        fill: #010101;
      }

      .svg_aai-st1 {
        fill: #d51f36;
      }
    </style>
  </defs>
    <g>
        <path d="M198.7,44.4l14.9,38.6h-7.2l-3.6-10.2h-15.4l-3.6,10.2h-7l14.8-38.6h7.2ZM194.9,51l-5.8,16.6h11.8l-5.8-16.6h-.2Z"/>
        <path d="M237.4,44.4l14.9,38.6h-7.2l-3.6-10.2h-15.4l-3.6,10.2h-7l14.8-38.6h7.2ZM233.7,51l-5.8,16.6h11.8l-5.8-16.6h-.2Z"/>
        <path d="M265.4,44.4v38.6h-6.8v-38.6h6.8Z"/>
        <path class="svg_aai-st0" d="M312.8,59.3c0,11.2-8.7,16-12.7,16s-3.1-1.3-3.2-3.1h-.1c-1.7,1.9-3.9,3.1-6,3.1-4.5,0-7.9-3.9-7.9-8.5,0-6.6,4.6-14,11.8-14s4.8,1.3,6,3.9l1-3.1h3.8l-3.9,14.2c-.2.8-.5,1.5-.5,2.5s.4,1.2,1,1.2c1.8,0,3.4-1.1,4.9-3.5,1.4-2.4,2.2-5.1,2.2-8.2,0-8.4-6.8-13-14.4-13s-15.5,6.5-15.5,16.2,5.9,17.2,16,17.2,9.1-1.9,12.2-5.3h3.8c-3.5,5.6-9.5,8.9-16.1,8.9-11.2,0-20.1-8.7-20.1-20.9s8.9-19.5,19.8-19.5,18.1,5.8,18.1,15.9ZM291.7,71.2c4.4,0,7.4-5.7,7.4-9.6s-1.9-4.8-4.3-4.8c-4.5,0-7.4,5.5-7.4,9.5s1.7,4.9,4.3,4.9Z"/>
        <path d="M350,44.4v5.8h-21v10.1h19.4v5.5h-19.4v11.3h21.4v5.8h-28.1v-38.6h27.8Z"/>
        <path d="M384.4,44.4v38.6h-5.8v-3.8h-.1c-1.7,3.1-4.9,4.5-8.6,4.5-8,0-13.1-5.7-13.1-14.9s5.2-14.5,12.1-14.5,7.6,1.7,9.3,4.4h.1v-14.3h6.2ZM370.6,78.8c4.9,0,7.8-4.3,7.8-9.9s-2.9-9.8-7.8-9.8-7.8,4.2-7.8,10.2,2.9,9.6,7.7,9.6Z"/>
        <path d="M399.9,55v17.3c0,4.2,1.6,6.5,5.3,6.5s6.9-2.8,6.9-7.4v-16.4h6.2v27.9h-6v-3.9h-.1c-1.6,2.9-4.8,4.6-8,4.6-7.1,0-10.4-3.6-10.4-10.7v-18h6.2Z"/>
        <path d="M434.9,44.4v15.3h17.6v-15.3h6.8v38.6h-6.8v-17.4h-17.6v17.4h-6.8v-38.6h6.8Z"/>
        <path d="M485.5,54.4v5.9c-.9-.2-1.8-.3-2.6-.3-4.6,0-7.6,4-7.6,9.3v13.5h-6.2v-27.9h5.8v5.4h.1c.9-3.6,5-6.2,8.2-6.2s1.4,0,2.3.2Z"/>
    </g>
    <g>
        <path d="M141.3,59.2c-.2-2.1-.4-4.1-.8-6.1-.4-2-.8-4.1-1.3-6-.5-2-1.2-4-1.9-5.9-.7-1.9-1.5-3.9-2.4-5.7-.9-1.9-1.8-3.7-2.8-5.5-1-1.8-2.1-3.5-3.3-5.2-1.2-1.7-2.4-3.3-3.8-4.9-1.3-1.6-2.7-3.1-4.2-4.5-1.5-1.5-3-2.8-4.6-4.2-1.6-1.3-3.2-2.6-4.9-3.8-1.7-1.2-3.4-2.3-5.2-3.3l-2.7,4.7c-1.6-.9-3.3-1.8-5.1-2.6-1.7-.8-3.5-1.5-5.3-2.2-1.8-.7-3.6-1.2-5.4-1.7-1.8-.5-3.7-.9-5.6-1.2-1.9-.3-3.7-.6-5.7-.7-1.9-.2-3.8-.2-5.7-.2s-3.8,0-5.7.2c-1.9.2-3.8.4-5.7.7-1.9.3-3.7.7-5.6,1.2-1.8.5-3.7,1.1-5.4,1.7-1.8.6-3.6,1.4-5.3,2.2-1.7.8-3.4,1.7-5.1,2.6l-2.7-4.7c-1.8,1-3.5,2.1-5.2,3.3-1.7,1.2-3.3,2.4-4.9,3.8-1.6,1.3-3.1,2.7-4.6,4.2s-2.8,3-4.2,4.6c-1.3,1.6-2.6,3.2-3.8,4.9-1.2,1.7-2.3,3.4-3.3,5.2-1,1.8-2,3.6-2.9,5.5-.9,1.9-1.7,3.8-2.4,5.7-.7,1.9-1.3,3.9-1.8,5.9-.5,2-1,4-1.3,6-.4,2-.6,4-.8,6.1-.2,2-.3,4.1-.3,6.2s0,4.1.3,6.2c.2,2.1.4,4.1.8,6.1.4,2,.8,4.1,1.3,6,.5,2,1.2,4,1.9,5.9.7,1.9,1.5,3.8,2.4,5.7.9,1.9,1.8,3.7,2.8,5.5,1,1.8,2.1,3.5,3.3,5.2,1.2,1.7,2.4,3.3,3.8,4.9,1.3,1.6,2.7,3.1,4.2,4.5l3.8-3.8,3.7-3.7h0c-1.2-1.2-2.4-2.5-3.5-3.9-1.1-1.3-2.2-2.7-3.2-4.2-1-1.4-1.9-2.9-2.8-4.4-.9-1.5-1.7-3.1-2.4-4.7-.7-1.6-1.4-3.2-2-4.8-.6-1.6-1.1-3.3-1.6-5-.4-1.7-.8-3.4-1.1-5.1-.3-1.7-.5-3.4-.7-5.2-.2-1.7-.2-3.5-.2-5.2h48.8c0-1,.1-2,.4-2.9l-5.2-1.4-5.2-1.4-5.3-1.4-5.2-1.4-5.3-1.4-5.1-1.4-5.3-1.4-5.4-1.4-5.3-1.4c.5-1.7,1-3.4,1.6-5,.6-1.6,1.3-3.3,2-4.8.7-1.6,1.5-3.1,2.4-4.7.9-1.5,1.8-3,2.8-4.4,1-1.4,2.1-2.8,3.2-4.2,1.1-1.3,2.3-2.6,3.5-3.9,1.2-1.2,2.5-2.4,3.9-3.5,1.3-1.1,2.7-2.2,4.2-3.2,1.4-1,2.9-1.9,4.4-2.8,1.5-.9,3.1-1.7,4.7-2.4,1.6-.7,3.2-1.4,4.8-2,1.6-.6,3.3-1.1,5-1.6,1.7-.5,3.4-.8,5.1-1.1,1.7-.3,3.4-.5,5.2-.7,1.7-.2,3.5-.2,5.2-.2s3.5,0,5.2.2c1.8.1,3.5.4,5.2.7,1.7.3,3.4.7,5.1,1.1,1.7.4,3.4,1,5,1.6,1.6.6,3.3,1.3,4.8,2,1.6.7,3.1,1.5,4.6,2.4,1.5.9,3,1.8,4.4,2.8,1.4,1,2.8,2.1,4.2,3.2,1.3,1.1,2.6,2.3,3.9,3.5,1.2,1.2,2.4,2.5,3.5,3.9,1.1,1.3,2.2,2.7,3.2,4.2,1,1.4,1.9,2.9,2.8,4.4.9,1.5,1.7,3.1,2.4,4.6.7,1.6,1.4,3.2,2,4.8.6,1.6,1.1,3.3,1.6,5l-5.3,1.4-5.4,1.4-5.3,1.4-5.1,1.4-5.2,1.4-5.2,1.4-5.3,1.4-5.2,1.4-5.2,1.4c.3.9.4,1.9.4,2.9h48.9c0,1.8,0,3.5-.2,5.2-.1,1.8-.4,3.5-.7,5.2-.3,1.7-.7,3.4-1.1,5.1-.5,1.7-1,3.4-1.6,5-.6,1.6-1.3,3.3-2,4.8-.7,1.6-1.5,3.1-2.4,4.6-.9,1.5-1.8,3-2.8,4.4-1,1.4-2.1,2.8-3.2,4.2s-2.3,2.6-3.5,3.9l3.7,3.7,3.8,3.8c1.5-1.5,2.8-3,4.2-4.5,1.3-1.6,2.6-3.2,3.8-4.9,1.2-1.7,2.3-3.4,3.3-5.2,1-1.8,2-3.6,2.8-5.5.9-1.9,1.7-3.8,2.4-5.7.7-1.9,1.3-3.9,1.9-5.9.5-2,1-4,1.3-6,.4-2,.6-4,.8-6.1.2-2,.3-4.1.3-6.2s0-4.1-.3-6.2Z"/>
        <g>
            <path class="svg_aai-st1" d="M86.9,69.7c-.4,1.4-.9,2.8-1.7,4l-4.7-2.7c-.5.9-1.1,1.6-1.8,2.3l3.8,3.8c-1,1-2.2,1.9-3.4,2.7l2.7,4.6c1.7-1,3.2-2.1,4.6-3.5,1.4-1.3,2.5-2.9,3.5-4.6,1-1.6,1.7-3.4,2.2-5.3l-5.2-1.4Z"/>
            <path class="svg_aai-st1" d="M78.7,73.3l-3.9-3.9c.4-.4.7-.8.9-1.2l4.7,2.7c.5-.8.9-1.8,1.1-2.7l-5.3-1.4c.1-.5.2-1,.2-1.5s0-1-.2-1.5c-.1-.5-.3-1-.6-1.4l4.7-2.7,4.7-2.7,4.7-2.7c-1-1.7-2.1-3.2-3.5-4.6h0c-1.4-1.4-2.9-2.5-4.6-3.5-1.6-1-3.4-1.7-5.3-2.2-1.8-.5-3.7-.7-5.7-.7s-3.9.3-5.7.7c-1.9.5-3.7,1.2-5.3,2.2-1.7,1-3.2,2.2-4.6,3.5-1.4,1.4-2.5,2.9-3.5,4.6l4.6,2.7,4.7,2.7,4.7,2.7c-.3.4-.5.9-.6,1.4-.1.5-.2,1-.2,1.5s0,1,.2,1.5l5.6-1.5h0s0,0,0,0h0s-4.1-4.1-4.1-4.1c.4-.4.8-.7,1.2-.9.4-.3.9-.4,1.4-.6l1.5,5.6h0s0,0,0,0h0s0,0,0,0l-1.5,5.6c-.5-.1-1-.3-1.4-.6-.5-.2-.9-.6-1.2-.9s-.7-.8-.9-1.2c-.3-.4-.5-.9-.6-1.4l-5.3,1.4-5.2,1.4-5.2,1.4c.5,1.9,1.2,3.7,2.2,5.3,1,1.7,2.1,3.2,3.5,4.6,1.4,1.4,2.9,2.5,4.6,3.5,1.6,1,3.4,1.7,5.3,2.2l1.4-5.2,1.4-5.2c.9.3,1.9.4,2.9.4v-5.5c.5,0,1,0,1.5-.2l1.4,5.3c-.9.3-1.9.4-2.9.4v10.8c2,0,3.9-.3,5.7-.8l-1.4-5.2c1.4-.4,2.8-1,4-1.7l-2.7-4.7c.9-.5,1.6-1.1,2.3-1.8ZM62.4,79.8c-1.3-.7-2.4-1.6-3.5-2.7l3.8-3.8c.7.7,1.5,1.3,2.3,1.8l-2.7,4.7ZM73.7,60.3c-.4-.3-.9-.5-1.4-.6-.5-.1-1-.2-1.5-.2v-5.5c1,0,2,.1,2.9.4,1,.3,1.9.6,2.7,1.1l2.7-4.7c1.3.7,2.4,1.6,3.4,2.7l-3.8,3.8h0c-.7-.7-1.5-1.3-2.3-1.8l-2.7,4.7Z"/>
        </g>
    </g>
</svg>
